<svg xmlns="http://www.w3.org/2000/svg" version="1.1" xmlns:xlink="http://www.w3.org/1999/xlink" xmlns:svgjs="http://svgjs.dev/svgjs" viewBox="0 0 2400 800" opacity="1"><defs><linearGradient x1="50%" y1="0%" x2="50%" y2="100%" id="sssurf-grad"><stop stop-color="#76e053ff" stop-opacity="1" offset="0%"></stop><stop stop-color="#16a34aff" stop-opacity="1" offset="100%"></stop></linearGradient></defs><g fill="url(#sssurf-grad)" transform="matrix(1,0,0,1,9.109130859375,197.5)"><path d="M-10,10C37.53787878787879,15.625,125.18939393939395,47,218.1818181818182,37C311.17424242424244,27,345.4545454545455,-38,436.3636363636364,-38C527.2727272727273,-38,563.6363636363636,32.416666666666664,654.5454545454545,37C745.4545454545454,41.583333333333336,781.8181818181818,-17.875,872.7272727272727,-16C963.6363636363637,-14.125,1000.0000000000001,48.083333333333336,1090.909090909091,46C1181.818181818182,43.916666666666664,1218.181818181818,-24.75,1309.090909090909,-26C1400,-27.25,1436.3636363636363,37.083333333333336,1527.2727272727273,40C1618.1818181818182,42.916666666666664,1654.5454545454545,-15.541666666666668,1745.4545454545455,-12C1836.3636363636365,-8.458333333333332,1872.7272727272727,56.166666666666664,1963.6363636363637,57C2054.5454545454545,57.833333333333336,2090.909090909091,-3.833333333333333,2181.818181818182,-8C2272.727272727273,-12.166666666666668,2302.462121212121,-48,2400,37C2497.537878787879,122,3254.1666666666665,220.20833333333331,2650,400C2045.8333333333335,579.7916666666667,156.25,795.8333333333334,-500,900" transform="matrix(1,0,0,1,0,49)" opacity="0.05"></path><path d="M-10,10C37.53787878787879,15.625,125.18939393939395,47,218.1818181818182,37C311.17424242424244,27,345.4545454545455,-38,436.3636363636364,-38C527.2727272727273,-38,563.6363636363636,32.416666666666664,654.5454545454545,37C745.4545454545454,41.583333333333336,781.8181818181818,-17.875,872.7272727272727,-16C963.6363636363637,-14.125,1000.0000000000001,48.083333333333336,1090.909090909091,46C1181.818181818182,43.916666666666664,1218.181818181818,-24.75,1309.090909090909,-26C1400,-27.25,1436.3636363636363,37.083333333333336,1527.2727272727273,40C1618.1818181818182,42.916666666666664,1654.5454545454545,-15.541666666666668,1745.4545454545455,-12C1836.3636363636365,-8.458333333333332,1872.7272727272727,56.166666666666664,1963.6363636363637,57C2054.5454545454545,57.833333333333336,2090.909090909091,-3.833333333333333,2181.818181818182,-8C2272.727272727273,-12.166666666666668,2302.462121212121,-48,2400,37C2497.537878787879,122,3254.1666666666665,220.20833333333331,2650,400C2045.8333333333335,579.7916666666667,156.25,795.8333333333334,-500,900" transform="matrix(1,0,0,1,0,98)" opacity="0.24"></path><path d="M-10,10C37.53787878787879,15.625,125.18939393939395,47,218.1818181818182,37C311.17424242424244,27,345.4545454545455,-38,436.3636363636364,-38C527.2727272727273,-38,563.6363636363636,32.416666666666664,654.5454545454545,37C745.4545454545454,41.583333333333336,781.8181818181818,-17.875,872.7272727272727,-16C963.6363636363637,-14.125,1000.0000000000001,48.083333333333336,1090.909090909091,46C1181.818181818182,43.916666666666664,1218.181818181818,-24.75,1309.090909090909,-26C1400,-27.25,1436.3636363636363,37.083333333333336,1527.2727272727273,40C1618.1818181818182,42.916666666666664,1654.5454545454545,-15.541666666666668,1745.4545454545455,-12C1836.3636363636365,-8.458333333333332,1872.7272727272727,56.166666666666664,1963.6363636363637,57C2054.5454545454545,57.833333333333336,2090.909090909091,-3.833333333333333,2181.818181818182,-8C2272.727272727273,-12.166666666666668,2302.462121212121,-48,2400,37C2497.537878787879,122,3254.1666666666665,220.20833333333331,2650,400C2045.8333333333335,579.7916666666667,156.25,795.8333333333334,-500,900" transform="matrix(1,0,0,1,0,147)" opacity="0.43"></path><path d="M-10,10C37.53787878787879,15.625,125.18939393939395,47,218.1818181818182,37C311.17424242424244,27,345.4545454545455,-38,436.3636363636364,-38C527.2727272727273,-38,563.6363636363636,32.416666666666664,654.5454545454545,37C745.4545454545454,41.583333333333336,781.8181818181818,-17.875,872.7272727272727,-16C963.6363636363637,-14.125,1000.0000000000001,48.083333333333336,1090.909090909091,46C1181.818181818182,43.916666666666664,1218.181818181818,-24.75,1309.090909090909,-26C1400,-27.25,1436.3636363636363,37.083333333333336,1527.2727272727273,40C1618.1818181818182,42.916666666666664,1654.5454545454545,-15.541666666666668,1745.4545454545455,-12C1836.3636363636365,-8.458333333333332,1872.7272727272727,56.166666666666664,1963.6363636363637,57C2054.5454545454545,57.833333333333336,2090.909090909091,-3.833333333333333,2181.818181818182,-8C2272.727272727273,-12.166666666666668,2302.462121212121,-48,2400,37C2497.537878787879,122,3254.1666666666665,220.20833333333331,2650,400C2045.8333333333335,579.7916666666667,156.25,795.8333333333334,-500,900" transform="matrix(1,0,0,1,0,196)" opacity="0.62"></path><path d="M-10,10C37.53787878787879,15.625,125.18939393939395,47,218.1818181818182,37C311.17424242424244,27,345.4545454545455,-38,436.3636363636364,-38C527.2727272727273,-38,563.6363636363636,32.416666666666664,654.5454545454545,37C745.4545454545454,41.583333333333336,781.8181818181818,-17.875,872.7272727272727,-16C963.6363636363637,-14.125,1000.0000000000001,48.083333333333336,1090.909090909091,46C1181.818181818182,43.916666666666664,1218.181818181818,-24.75,1309.090909090909,-26C1400,-27.25,1436.3636363636363,37.083333333333336,1527.2727272727273,40C1618.1818181818182,42.916666666666664,1654.5454545454545,-15.541666666666668,1745.4545454545455,-12C1836.3636363636365,-8.458333333333332,1872.7272727272727,56.166666666666664,1963.6363636363637,57C2054.5454545454545,57.833333333333336,2090.909090909091,-3.833333333333333,2181.818181818182,-8C2272.727272727273,-12.166666666666668,2302.462121212121,-48,2400,37C2497.537878787879,122,3254.1666666666665,220.20833333333331,2650,400C2045.8333333333335,579.7916666666667,156.25,795.8333333333334,-500,900" transform="matrix(1,0,0,1,0,245)" opacity="0.81"></path><path d="M-10,10C37.53787878787879,15.625,125.18939393939395,47,218.1818181818182,37C311.17424242424244,27,345.4545454545455,-38,436.3636363636364,-38C527.2727272727273,-38,563.6363636363636,32.416666666666664,654.5454545454545,37C745.4545454545454,41.583333333333336,781.8181818181818,-17.875,872.7272727272727,-16C963.6363636363637,-14.125,1000.0000000000001,48.083333333333336,1090.909090909091,46C1181.818181818182,43.916666666666664,1218.181818181818,-24.75,1309.090909090909,-26C1400,-27.25,1436.3636363636363,37.083333333333336,1527.2727272727273,40C1618.1818181818182,42.916666666666664,1654.5454545454545,-15.541666666666668,1745.4545454545455,-12C1836.3636363636365,-8.458333333333332,1872.7272727272727,56.166666666666664,1963.6363636363637,57C2054.5454545454545,57.833333333333336,2090.909090909091,-3.833333333333333,2181.818181818182,-8C2272.727272727273,-12.166666666666668,2302.462121212121,-48,2400,37C2497.537878787879,122,3254.1666666666665,220.20833333333331,2650,400C2045.8333333333335,579.7916666666667,156.25,795.8333333333334,-500,900" transform="matrix(1,0,0,1,0,294)" opacity="1.00"></path></g></svg>