<svg width="182" height="182" viewBox="0 0 182 182" fill="none" xmlns="http://www.w3.org/2000/svg">
<path d="M100.575 21.5101C105.934 16.3488 114.859 18.7419 116.921 25.8925L128.611 66.4418C129.056 67.9859 129.871 69.3982 130.985 70.5562L160.244 100.97C165.401 106.33 163.012 115.25 155.868 117.312L115.331 129.013C113.788 129.458 112.376 130.274 111.219 131.388L80.8323 160.656C75.4737 165.818 66.5481 163.425 64.4865 156.274L52.7963 115.725C52.3511 114.181 51.5362 112.768 50.4221 111.61L21.1628 81.1967C16.0061 75.8366 18.3948 66.9163 25.5392 64.8542L66.0762 53.1536C67.6197 52.7081 69.0313 51.8927 70.1884 50.7782L100.575 21.5101Z" fill="#FFD489"/>
<g clip-path="url(#clip0_4408_14717)">
<path d="M41.9796 67.6807L41.5461 66.1838L46.8177 64.6554L47.2512 66.1523L45.4409 66.6772L46.8722 71.6198L45.2168 72.0997L43.7855 67.1572L41.9796 67.6807Z" fill="#07503E"/>
<path d="M50.5732 70.5536L49.0771 70.9874L47.7548 66.4212L49.2509 65.9875L50.5732 70.5536ZM47.5661 65.8855L47.1813 64.5568L48.7394 64.1051L49.1241 65.4338L47.5661 65.8855Z" fill="#07503E"/>
<path d="M52.8187 69.955L51.3296 70.3848L50.0193 65.8398L51.2045 65.4977L51.4325 65.9906L51.4633 65.9817C51.6057 65.5045 51.9736 65.1802 52.5669 65.009C52.8547 64.9259 53.1278 64.9076 53.3862 64.954C53.6466 64.9966 53.8741 65.1124 54.0686 65.3014L54.095 65.2938C54.1603 65.0457 54.2876 64.8307 54.477 64.6487C54.6692 64.4659 54.9211 64.3296 55.2324 64.2397C55.7758 64.0829 56.2357 64.122 56.6121 64.3572C56.9906 64.5886 57.2616 64.9879 57.4251 65.5551L58.2422 68.3897L56.7531 68.8195L55.9664 66.0907C55.9004 65.8615 55.7954 65.7071 55.6516 65.6277C55.5107 65.5474 55.3463 65.5343 55.1583 65.5886C54.9733 65.642 54.8425 65.7402 54.766 65.8833C54.6925 66.0255 54.6888 66.2112 54.7548 66.4404L55.5415 69.1692L54.0479 69.6003L53.2613 66.8715C53.1952 66.6422 53.0903 66.4879 52.9464 66.4084C52.8056 66.3281 52.6412 66.3151 52.4532 66.3693C52.2681 66.4227 52.1344 66.5218 52.0521 66.6666C51.9727 66.8104 51.966 66.997 52.0321 67.2262L52.8187 69.955Z" fill="#07503E"/>
<path d="M62.9167 66.0867C62.813 66.4465 62.6097 66.755 62.3068 67.0125C62.003 67.267 61.6313 67.4579 61.1917 67.5854C60.7048 67.7266 60.2508 67.7494 59.8297 67.6538C59.4116 67.5574 59.0509 67.3612 58.7476 67.065C58.4444 66.7689 58.226 66.3905 58.0927 65.9299C57.9584 65.4664 57.9384 65.0273 58.0327 64.6127C58.129 64.1944 58.3262 63.8315 58.6243 63.5243C58.9244 63.2132 59.315 62.988 59.796 62.8485C60.3182 62.6971 60.7955 62.6884 61.2277 62.8223C61.6591 62.9533 62.0214 63.2051 62.3149 63.5776C62.6083 63.9502 62.8073 64.4222 62.912 64.9935L59.7251 65.9175C59.8365 66.1476 59.9931 66.3071 60.1947 66.3959C60.3963 66.4846 60.6225 66.4926 60.8734 66.4199C61.074 66.3617 61.2378 66.2758 61.3649 66.1622C61.491 66.0456 61.5863 65.9108 61.6507 65.7577L62.9167 66.0867ZM60.1333 64.0133C59.8942 64.0826 59.7179 64.2026 59.6041 64.3732C59.4934 64.5429 59.4477 64.7498 59.4672 64.9937L61.2023 64.4907C61.1069 64.2719 60.9671 64.1204 60.7828 64.0362C60.5976 63.9491 60.3811 63.9415 60.1333 64.0133Z" fill="#07503E"/>
<path d="M64.8432 62.997L64.4405 61.6063L65.0115 61.4408L64.7383 60.4974L66.1403 59.7885L66.4943 61.0109L67.3441 60.7645L67.7468 62.1551L66.897 62.4015L67.3228 63.8719C67.3869 64.0933 67.5223 64.1741 67.7288 64.1142L68.2688 63.9577L68.6664 65.3306L67.8343 65.5719C67.3415 65.7147 66.9323 65.699 66.6067 65.5245C66.2811 65.3501 66.041 64.9957 65.8862 64.4612L65.4142 62.8314L64.8432 62.997Z" fill="#07503E"/>
<path d="M68.423 62.9963C68.2917 62.5408 68.279 62.1051 68.3851 61.6893C68.4911 61.2735 68.6995 60.9094 69.0103 60.5968C69.3211 60.2843 69.7173 60.0585 70.199 59.9195C70.6807 59.7805 71.1363 59.7604 71.5656 59.8593C71.995 59.9582 72.3653 60.1554 72.6763 60.4508C72.9874 60.7462 73.2086 61.1217 73.3399 61.5773C73.4704 62.0299 73.4826 62.464 73.3765 62.8798C73.2705 63.2956 73.0617 63.6584 72.7501 63.968C72.4414 64.2767 72.0447 64.501 71.5601 64.6409C71.0784 64.7799 70.6233 64.8014 70.1947 64.7055C69.7662 64.6095 69.3964 64.4138 69.0853 64.1184C68.7742 63.823 68.5535 63.4489 68.423 62.9963ZM71.8551 62.0058C71.7636 61.6884 71.5984 61.4575 71.3596 61.3131C71.1228 61.165 70.8605 61.1325 70.5726 61.2156C70.2848 61.2986 70.0782 61.4649 69.9529 61.7144C69.8304 61.963 69.8154 62.2475 69.9078 62.5678C69.9993 62.8852 70.163 63.1165 70.3989 63.2617C70.6369 63.4031 70.8999 63.4323 71.1877 63.3492C71.4785 63.2653 71.6855 63.1005 71.8088 62.8548C71.9312 62.6062 71.9466 62.3232 71.8551 62.0058Z" fill="#07503E"/>
<path d="M79.7154 57.4069C79.8391 57.8354 79.8367 58.2474 79.7081 58.643C79.5796 59.0343 79.348 59.3911 79.0132 59.7136C78.6565 60.0572 78.2705 60.2868 77.8554 60.4022C77.4403 60.5133 77.0285 60.5108 76.6199 60.3949C76.2136 60.2768 75.8429 60.0437 75.5079 59.6955C75.173 59.3474 74.9543 58.9657 74.8519 58.5506C74.7474 58.1332 74.7596 57.7181 74.8886 57.3052C75.0176 56.888 75.2627 56.5055 75.6238 56.1576C75.952 55.8415 76.3149 55.6299 76.7126 55.5228C77.1081 55.4135 77.5186 55.4278 77.9441 55.5657L77.5742 56.941C77.1719 56.836 76.8386 56.9108 76.5743 57.1653C76.3651 57.3669 76.2623 57.6018 76.2658 57.8701C76.2716 58.1363 76.3879 58.3873 76.6147 58.6231C76.8394 58.8567 77.0846 58.9814 77.3502 58.9973C77.6137 59.0109 77.8512 58.9159 78.0626 58.7123C78.3445 58.4408 78.4416 58.1095 78.3539 57.7184L79.7154 57.4069Z" fill="#07503E"/>
<path d="M81.9078 56.7378L80.7844 57.8173L76.1433 52.9816L77.2667 51.9021L78.9106 53.6149L78.9372 53.5893C78.8894 53.1579 79.0638 52.7516 79.4605 52.3704C79.8505 51.9957 80.2743 51.8271 80.732 51.8646C81.1898 51.8978 81.6368 52.1417 82.0731 52.5962L84.0616 54.6681L82.9382 55.7477L81.023 53.7522C80.8336 53.5549 80.6466 53.4554 80.4619 53.4539C80.2773 53.4523 80.1085 53.525 79.9556 53.6719C79.7983 53.8231 79.7178 53.9899 79.7141 54.1725C79.7104 54.355 79.8032 54.545 79.9926 54.7423L81.9078 56.7378Z" fill="#07503E"/>
<path d="M83.2625 51.1927L81.9728 51.4797C81.9023 51.0933 81.929 50.7152 82.0528 50.3455C82.1765 49.9758 82.3981 49.6371 82.7174 49.3295C83.2262 48.8395 83.7376 48.6037 84.2518 48.6221C84.7639 48.6384 85.2553 48.8911 85.7259 49.3803L87.5958 51.3239L86.6874 52.1989L86.2111 51.8362L86.1847 51.8616C86.2957 52.3873 86.1145 52.8781 85.641 53.3342C85.2865 53.6757 84.9123 53.8514 84.5187 53.8612C84.1272 53.8689 83.7778 53.713 83.4703 53.3935C83.1735 53.085 83.0451 52.7353 83.0849 52.3445C83.127 51.9516 83.3429 51.5674 83.7327 51.1919L84.5883 50.3678L84.4739 50.2488C84.3382 50.1078 84.1893 50.0368 84.0271 50.0359C83.8672 50.0328 83.7091 50.1066 83.5527 50.2572C83.4227 50.3824 83.3346 50.5246 83.2884 50.6838C83.2443 50.8408 83.2357 51.0105 83.2625 51.1927ZM85.1202 52.2437C85.3162 52.0549 85.4239 51.8493 85.4432 51.6269C85.4648 51.4023 85.3908 51.2019 85.2212 51.0256L85.1989 51.0024L84.5415 51.6357C84.2927 51.8754 84.2647 52.0955 84.4576 52.296C84.6527 52.4987 84.8735 52.4813 85.1202 52.2437Z" fill="#07503E"/>
<path d="M89.2186 49.6995L88.0952 50.779L84.8043 47.3501L85.725 46.4654L86.168 46.8005L86.1945 46.775C86.158 46.5416 86.1801 46.3051 86.261 46.0654C86.3442 45.8236 86.5032 45.5898 86.738 45.3641C87.1435 44.9745 87.5784 44.7974 88.0427 44.8329C88.507 44.8684 88.9583 45.1145 89.3966 45.5712L91.3724 47.6299L90.249 48.7094L88.337 46.7172C88.1476 46.5199 87.9617 46.4194 87.7793 46.4157C87.5991 46.4099 87.4292 46.4836 87.2696 46.6369C87.1101 46.7902 87.0285 46.9582 87.0248 47.1407C87.0233 47.3211 87.1173 47.51 87.3066 47.7073L89.2186 49.6995Z" fill="#07503E"/>
<path d="M94.0348 44.7406L93.6246 44.3142L93.5948 44.3428C93.6101 44.5616 93.5736 44.7794 93.4851 44.9962C93.3967 45.213 93.2445 45.4253 93.0287 45.6332C92.749 45.9026 92.4343 46.0827 92.0845 46.1734C91.7347 46.2597 91.3772 46.2475 91.0117 46.1367C90.6464 46.0216 90.3037 45.7977 89.9835 45.4649C89.6613 45.13 89.4496 44.7777 89.3486 44.408C89.2476 44.034 89.249 43.6717 89.353 43.321C89.4548 42.9682 89.6478 42.655 89.9319 42.3813C90.4076 41.9231 90.9126 41.7423 91.4469 41.839L91.4734 41.8136L91.1484 41.3369L92.0635 40.4555L95.1545 43.6684C95.5531 44.0826 95.7447 44.5243 95.7293 44.9935C95.7161 45.4605 95.4738 45.921 95.0026 46.3749L94.2262 47.1227C93.8871 47.4494 93.5685 47.6586 93.2706 47.7503C92.977 47.842 92.6381 47.8118 92.254 47.6595L92.7364 46.3415C92.9039 46.401 93.043 46.4177 93.1537 46.3917C93.2645 46.3657 93.3848 46.2901 93.5148 46.1649L94.0169 45.6812C94.1733 45.5306 94.2509 45.3731 94.2497 45.2087C94.2485 45.0442 94.1768 44.8882 94.0348 44.7406ZM91.1128 44.4026C91.3079 44.6054 91.5372 44.7114 91.8008 44.7208C92.0622 44.7279 92.2899 44.6381 92.4837 44.4514C92.6797 44.2627 92.7725 44.0416 92.7622 43.7883C92.752 43.5307 92.643 43.2939 92.4352 43.0779C92.2253 42.8598 91.9982 42.7538 91.7537 42.7599C91.5094 42.7618 91.2859 42.8603 91.0833 43.0554C90.8785 43.2527 90.7834 43.4759 90.7982 43.725C90.8129 43.974 90.9178 44.1999 91.1128 44.4026Z" fill="#07503E"/>
<path d="M98.4386 39.6203C98.5137 39.9871 98.4769 40.3549 98.3283 40.7236C98.1774 41.0902 97.9369 41.4321 97.6068 41.7493C97.2412 42.1006 96.8497 42.3319 96.4325 42.443C96.0174 42.552 95.6069 42.5459 95.2009 42.4246C94.7948 42.3033 94.4258 42.0697 94.0939 41.7238C93.7598 41.3757 93.5382 40.9962 93.4292 40.5853C93.3203 40.17 93.3264 39.757 93.4477 39.3464C93.5691 38.9315 93.8104 38.5504 94.1716 38.2034C94.5638 37.8265 94.9823 37.5969 95.4273 37.5146C95.8701 37.4301 96.3079 37.4846 96.7407 37.6782C97.1735 37.8717 97.5689 38.1972 97.9268 38.6544L95.5337 40.954C95.7392 41.106 95.9519 41.1745 96.1716 41.1593C96.3914 41.1442 96.5954 41.0462 96.7838 40.8652C96.9345 40.7204 97.0397 40.5682 97.0994 40.4085C97.157 40.2466 97.1788 40.0829 97.1647 39.9174L98.4386 39.6203ZM95.0111 39.0781C94.8316 39.2505 94.7311 39.4387 94.7096 39.6427C94.6903 39.8445 94.7459 40.0489 94.8764 40.2559L96.1794 39.0039C95.9933 38.8544 95.7992 38.7853 95.5969 38.7964C95.3925 38.8053 95.1972 38.8992 95.0111 39.0781Z" fill="#07503E"/>
<path d="M113.719 41.0554L115.216 40.6216L116.743 45.8964L115.247 46.3301L114.722 44.5187L109.783 45.9509L109.303 44.2945L114.243 42.8624L113.719 41.0554Z" fill="#07503E"/>
<path d="M110.796 49.6461L110.366 48.1561L114.909 46.8451L115.338 48.3351L110.796 49.6461ZM115.442 46.6578L116.764 46.2763L117.211 47.8281L115.889 48.2095L115.442 46.6578Z" fill="#07503E"/>
<path d="M111.446 51.8996L111.017 50.4096L115.559 49.0986L115.901 50.2844L115.408 50.5126L115.417 50.5434C115.894 50.6859 116.218 51.054 116.389 51.6477C116.472 51.9357 116.491 52.2089 116.444 52.4674C116.402 52.728 116.286 52.9556 116.097 53.1502L116.105 53.1767C116.352 53.242 116.567 53.3694 116.749 53.5589C116.932 53.7513 117.068 54.0032 117.158 54.3147C117.315 54.8584 117.276 55.3186 117.041 55.6952C116.809 56.074 116.41 56.3451 115.843 56.5087L113.01 57.3264L112.581 55.8363L115.308 55.0492C115.537 54.9831 115.691 54.8781 115.771 54.7342C115.851 54.5932 115.864 54.4287 115.81 54.2406C115.757 54.0555 115.658 53.9246 115.515 53.8481C115.373 53.7745 115.188 53.7708 114.959 53.8369L112.231 54.624L111.801 53.1296L114.528 52.3425C114.757 52.2763 114.911 52.1713 114.991 52.0274C115.071 51.8865 115.084 51.722 115.03 51.5339C114.976 51.3487 114.877 51.2149 114.733 51.1325C114.589 51.0531 114.402 51.0464 114.173 51.1125L111.446 51.8996Z" fill="#07503E"/>
<path d="M115.249 61.9862C114.891 61.8825 114.584 61.6797 114.329 61.3779C114.076 61.0752 113.887 60.7049 113.76 60.267C113.621 59.782 113.598 59.33 113.694 58.9109C113.79 58.4947 113.986 58.1358 114.281 57.8342C114.576 57.5326 114.952 57.3157 115.41 57.1835C115.872 57.0504 116.308 57.031 116.72 57.1253C117.136 57.2218 117.497 57.4185 117.802 57.7157C118.111 58.0149 118.335 58.404 118.473 58.883C118.623 59.4032 118.631 59.8784 118.497 60.3086C118.366 60.7379 118.115 61.0984 117.745 61.39C117.374 61.6817 116.904 61.8793 116.336 61.9829L115.421 58.8088C115.192 58.9195 115.033 59.0751 114.945 59.2758C114.856 59.4764 114.848 59.7016 114.92 59.9514C114.977 60.1513 115.063 60.3145 115.175 60.4411C115.291 60.5669 115.425 60.6619 115.577 60.7262L115.249 61.9862ZM117.314 59.2175C117.245 58.9794 117.126 58.8037 116.957 58.6902C116.788 58.5797 116.582 58.534 116.34 58.5531L116.838 60.2812C117.056 60.1866 117.206 60.0475 117.29 59.8641C117.377 59.6799 117.385 59.4643 117.314 59.2175Z" fill="#07503E"/>
<path d="M118.395 63.9059L119.785 63.5029L119.95 64.0742L120.893 63.8009L121.602 65.2037L120.38 65.5579L120.626 66.4082L119.236 66.8112L118.99 65.9608L117.521 66.3869C117.299 66.4511 117.219 66.5865 117.278 66.7932L117.435 67.3335L116.063 67.7313L115.822 66.8987C115.679 66.4056 115.695 65.9962 115.869 65.6704C116.043 65.3446 116.397 65.1043 116.932 64.9494L118.56 64.4772L118.395 63.9059Z" fill="#07503E"/>
<path d="M118.389 67.4864C118.845 67.355 119.28 67.3423 119.696 67.4484C120.111 67.5545 120.475 67.7631 120.787 68.074C121.1 68.385 121.325 68.7815 121.464 69.2634C121.603 69.7454 121.623 70.2013 121.525 70.6309C121.426 71.0605 121.229 71.431 120.933 71.7422C120.638 72.0535 120.263 72.2748 119.808 72.4062C119.355 72.5367 118.921 72.549 118.506 72.4429C118.09 72.3368 117.728 72.1278 117.418 71.816C117.11 71.5071 116.886 71.1102 116.746 70.6253C116.607 70.1433 116.585 69.6879 116.681 69.2591C116.777 68.8303 116.973 68.4603 117.268 68.1491C117.563 67.8378 117.937 67.6169 118.389 67.4864ZM119.379 70.9205C119.697 70.829 119.927 70.6637 120.072 70.4247C120.22 70.1878 120.252 69.9253 120.169 69.6373C120.086 69.3493 119.92 69.1426 119.671 69.0171C119.422 68.8947 119.138 68.8796 118.818 68.972C118.5 69.0636 118.269 69.2274 118.124 69.4635C117.983 69.7016 117.954 69.9647 118.037 70.2527C118.121 70.5437 118.285 70.7508 118.531 70.8742C118.779 70.9966 119.062 71.0121 119.379 70.9205Z" fill="#07503E"/>
<path d="M123.436 79.1219C123.008 79.2457 122.596 79.2433 122.201 79.1146C121.81 78.986 121.453 78.7542 121.131 78.4193C120.788 78.0623 120.558 77.6761 120.443 77.2607C120.332 76.8454 120.334 76.4334 120.45 76.0246C120.568 75.618 120.801 75.2471 121.149 74.9119C121.497 74.5767 121.878 74.3579 122.293 74.2555C122.71 74.151 123.125 74.1632 123.538 74.2922C123.955 74.4213 124.337 74.6665 124.685 75.0279C125.001 75.3562 125.212 75.7194 125.319 76.1173C125.429 76.5131 125.414 76.9238 125.276 77.3495L123.902 76.9794C124.007 76.5769 123.932 76.2434 123.678 75.9789C123.476 75.7696 123.242 75.6667 122.973 75.6703C122.707 75.676 122.457 75.7924 122.221 76.0194C121.987 76.2442 121.863 76.4895 121.847 76.7553C121.833 77.019 121.928 77.2566 122.132 77.4681C122.403 77.7502 122.734 77.8473 123.125 77.7596L123.436 79.1219Z" fill="#07503E"/>
<path d="M124.061 81.3317L122.987 80.2144L127.79 75.5878L128.865 76.7051L127.163 78.3438L127.189 78.3702C127.618 78.3221 128.022 78.4953 128.402 78.8898C128.775 79.2776 128.943 79.6994 128.906 80.1552C128.874 80.611 128.632 81.0563 128.18 81.4912L126.122 83.4736L125.047 82.3564L127.029 80.4472C127.225 80.2584 127.324 80.072 127.325 79.8882C127.327 79.7043 127.254 79.5364 127.108 79.3843C126.957 79.2279 126.791 79.1479 126.61 79.1445C126.428 79.141 126.24 79.2337 126.044 79.4225L124.061 81.3317Z" fill="#07503E"/>
<path d="M129.699 82.6376L129.413 81.3403C129.801 81.2699 130.181 81.2972 130.552 81.4221C130.923 81.547 131.263 81.7702 131.571 82.0917C132.063 82.6039 132.299 83.1185 132.28 83.6355C132.263 84.1505 132.009 84.6443 131.517 85.117L129.562 86.9949L128.684 86.0803L129.049 85.6018L129.024 85.5752C128.496 85.6863 128.003 85.5035 127.546 85.0268C127.203 84.6698 127.027 84.2934 127.018 83.8975C127.01 83.5038 127.167 83.1526 127.489 82.8439C127.799 82.5458 128.15 82.417 128.543 82.4576C128.937 82.5004 129.323 82.718 129.7 83.1104L130.526 83.9718L130.646 83.8568C130.788 83.7206 130.859 83.5709 130.86 83.4079C130.864 83.247 130.79 83.0879 130.639 82.9305C130.513 82.7997 130.37 82.7109 130.21 82.6642C130.053 82.6197 129.882 82.6108 129.699 82.6376ZM128.641 84.5043C128.831 84.7017 129.037 84.8102 129.261 84.8299C129.486 84.8519 129.688 84.7777 129.865 84.6074L129.888 84.585L129.253 83.9232C129.012 83.6726 128.791 83.6443 128.59 83.838C128.386 84.0339 128.403 84.256 128.641 84.5043Z" fill="#07503E"/>
<path d="M131.104 88.6613L130.029 87.5441L133.435 84.2634L134.315 85.1791L133.983 85.6205L134.008 85.647C134.24 85.6103 134.475 85.6321 134.714 85.7123C134.954 85.7948 135.187 85.9528 135.412 86.1864C135.8 86.5896 135.976 87.0224 135.942 87.4847C135.907 87.947 135.663 88.3966 135.209 88.8336L133.164 90.8032L132.089 89.686L134.068 87.78C134.264 87.5912 134.364 87.406 134.367 87.2243C134.373 87.0449 134.299 86.8758 134.147 86.7172C133.994 86.5585 133.827 86.4774 133.645 86.474C133.466 86.4727 133.278 86.5665 133.082 86.7553L131.104 88.6613Z" fill="#07503E"/>
<path d="M136.101 93.4507L136.527 93.0402L136.498 93.0104C136.28 93.0258 136.062 92.9892 135.845 92.9007C135.629 92.8122 135.416 92.66 135.209 92.444C134.939 92.1641 134.759 91.8492 134.669 91.4992C134.582 91.1493 134.595 90.7915 134.705 90.4258C134.82 90.0603 135.044 89.7173 135.377 89.397C135.712 89.0746 136.064 88.8628 136.433 88.7617C136.807 88.6606 137.169 88.6621 137.519 88.7661C137.872 88.868 138.185 89.0611 138.459 89.3454C138.917 89.8213 139.097 90.3267 139.001 90.8613L139.026 90.8877L139.502 90.5626L140.383 91.4782L137.172 94.5711C136.758 94.9699 136.317 95.1616 135.848 95.1462C135.381 95.133 134.921 94.8906 134.467 94.419L133.72 93.6422C133.393 93.3029 133.184 92.9841 133.093 92.686C133.001 92.3922 133.031 92.0532 133.183 91.6689L134.501 92.1515C134.441 92.3191 134.425 92.4583 134.451 92.5691C134.477 92.6799 134.552 92.8003 134.677 92.9304L135.161 93.4328C135.311 93.5892 135.469 93.6669 135.633 93.6657C135.797 93.6645 135.953 93.5928 136.101 93.4507ZM136.438 90.527C136.236 90.7221 136.13 90.9516 136.121 91.2153C136.113 91.4769 136.203 91.7047 136.39 91.8986C136.578 92.0948 136.799 92.1877 137.052 92.1773C137.31 92.1671 137.547 92.058 137.762 91.8501C137.98 91.6401 138.086 91.4128 138.08 91.1683C138.078 90.9238 137.98 90.7002 137.785 90.4974C137.588 90.2925 137.365 90.1974 137.116 90.2121C136.867 90.2269 136.641 90.3318 136.438 90.527Z" fill="#07503E"/>
<path d="M141.212 97.8555C140.846 97.9307 140.478 97.8939 140.11 97.7451C139.743 97.5942 139.401 97.3536 139.084 97.0232C138.733 96.6574 138.502 96.2657 138.391 95.8482C138.282 95.4329 138.288 95.0222 138.41 94.6159C138.531 94.2096 138.764 93.8404 139.11 93.5082C139.458 93.1739 139.837 92.9523 140.248 92.8432C140.663 92.7342 141.076 92.7403 141.486 92.8617C141.901 92.9832 142.281 93.2246 142.628 93.586C143.005 93.9784 143.234 94.3972 143.317 94.8424C143.401 95.2855 143.347 95.7235 143.153 96.1566C142.96 96.5897 142.634 96.9853 142.177 97.3435L139.879 94.9489C139.727 95.1546 139.659 95.3673 139.674 95.5872C139.689 95.8071 139.787 96.0113 139.968 96.1997C140.113 96.3505 140.265 96.4558 140.424 96.5155C140.586 96.5732 140.75 96.595 140.915 96.5809L141.212 97.8555ZM141.754 94.426C141.582 94.2464 141.394 94.1458 141.19 94.1243C140.988 94.105 140.784 94.1607 140.577 94.2913L141.828 95.595C141.978 95.4088 142.047 95.2146 142.036 95.0122C142.027 94.8076 141.933 94.6122 141.754 94.426Z" fill="#07503E"/>
<path d="M138.122 114.762L138.551 116.252L133.304 117.767L132.874 116.277L134.676 115.757L133.258 110.837L134.906 110.361L136.324 115.281L138.122 114.762Z" fill="#07503E"/>
<path d="M129.568 111.955L131.064 111.521L132.387 116.087L130.891 116.521L129.568 111.955ZM132.575 116.623L132.96 117.952L131.402 118.403L131.017 117.075L132.575 116.623Z" fill="#07503E"/>
<path d="M127.317 112.606L128.813 112.172L130.135 116.738L128.945 117.083L128.715 116.588L128.684 116.597C128.541 117.077 128.172 117.403 127.576 117.576C127.287 117.66 127.012 117.679 126.753 117.632C126.491 117.59 126.262 117.474 126.066 117.284L126.04 117.292C125.975 117.541 125.847 117.757 125.657 117.94C125.464 118.124 125.211 118.262 124.898 118.352C124.352 118.511 123.89 118.472 123.511 118.236C123.131 118.004 122.858 117.603 122.693 117.033L121.868 114.185L123.364 113.752L124.158 116.493C124.225 116.723 124.331 116.878 124.475 116.958C124.617 117.039 124.782 117.051 124.971 116.997C125.157 116.943 125.288 116.844 125.365 116.7C125.439 116.557 125.442 116.37 125.375 116.14L124.581 113.399L126.082 112.964L126.876 115.705C126.943 115.935 127.048 116.09 127.193 116.17C127.334 116.251 127.5 116.263 127.689 116.209C127.875 116.155 128.009 116.055 128.091 115.91C128.171 115.765 128.177 115.577 128.111 115.347L127.317 112.606Z" fill="#07503E"/>
<path d="M117.215 116.369C117.319 116.011 117.522 115.705 117.823 115.449C118.126 115.196 118.496 115.006 118.934 114.88C119.418 114.74 119.87 114.718 120.289 114.814C120.705 114.91 121.063 115.106 121.365 115.401C121.666 115.696 121.883 116.073 122.015 116.531C122.148 116.992 122.168 117.429 122.073 117.842C121.977 118.258 121.78 118.619 121.483 118.924C121.184 119.233 120.795 119.457 120.317 119.595C119.797 119.745 119.322 119.753 118.892 119.62C118.463 119.489 118.103 119.238 117.811 118.867C117.52 118.495 117.322 118.026 117.219 117.457L120.391 116.541C120.28 116.312 120.125 116.153 119.924 116.065C119.724 115.976 119.499 115.968 119.249 116.04C119.049 116.098 118.886 116.183 118.76 116.296C118.634 116.412 118.539 116.546 118.475 116.698L117.215 116.369ZM119.982 118.436C120.22 118.367 120.396 118.248 120.509 118.078C120.62 117.91 120.665 117.704 120.646 117.461L118.919 117.959C119.014 118.177 119.153 118.328 119.336 118.412C119.52 118.499 119.736 118.507 119.982 118.436Z" fill="#07503E"/>
<path d="M115.276 119.452L115.675 120.836L115.107 121L115.378 121.939L113.982 122.643L113.631 121.426L112.785 121.67L112.386 120.286L113.232 120.042L112.81 118.578C112.747 118.358 112.612 118.277 112.406 118.336L111.869 118.492L111.475 117.125L112.303 116.886C112.794 116.744 113.201 116.76 113.525 116.934C113.848 117.108 114.087 117.461 114.24 117.993L114.708 119.616L115.276 119.452Z" fill="#07503E"/>
<path d="M111.706 119.515C111.837 119.97 111.85 120.406 111.744 120.822C111.638 121.237 111.429 121.602 111.119 121.914C110.808 122.227 110.412 122.452 109.93 122.591C109.448 122.731 108.993 122.751 108.563 122.652C108.134 122.553 107.764 122.356 107.453 122.06C107.141 121.765 106.92 121.389 106.789 120.934C106.658 120.481 106.646 120.047 106.752 119.631C106.858 119.215 107.067 118.853 107.379 118.543C107.687 118.234 108.084 118.01 108.569 117.87C109.05 117.731 109.506 117.71 109.934 117.806C110.363 117.901 110.732 118.097 111.044 118.393C111.355 118.688 111.575 119.062 111.706 119.515ZM108.274 120.505C108.365 120.823 108.53 121.053 108.769 121.198C109.006 121.346 109.268 121.378 109.556 121.295C109.844 121.212 110.051 121.046 110.176 120.797C110.298 120.548 110.313 120.263 110.221 119.943C110.13 119.626 109.966 119.394 109.73 119.249C109.492 119.108 109.229 119.079 108.941 119.162C108.65 119.246 108.443 119.41 108.32 119.656C108.198 119.905 108.182 120.188 108.274 120.505Z" fill="#07503E"/>
<path d="M100.732 125.658C100.608 125.229 100.61 124.817 100.739 124.421C100.867 124.03 101.099 123.673 101.434 123.351C101.791 123.007 102.177 122.778 102.592 122.662C103.007 122.551 103.419 122.554 103.827 122.67C104.234 122.788 104.604 123.021 104.939 123.369C105.274 123.717 105.493 124.099 105.595 124.514C105.7 124.931 105.687 125.346 105.559 125.759C105.43 126.176 105.184 126.559 104.823 126.907C104.495 127.223 104.132 127.435 103.735 127.542C103.339 127.651 102.928 127.637 102.503 127.499L102.873 126.123C103.275 126.228 103.608 126.154 103.873 125.899C104.082 125.698 104.185 125.463 104.181 125.194C104.176 124.928 104.059 124.677 103.832 124.441C103.608 124.208 103.362 124.083 103.097 124.067C102.833 124.054 102.596 124.149 102.384 124.352C102.103 124.624 102.005 124.955 102.093 125.346L100.732 125.658Z" fill="#07503E"/>
<path d="M98.5144 126.293L99.631 125.217L104.255 130.024L103.138 131.099L101.501 129.397L101.474 129.422C101.522 129.851 101.349 130.256 100.955 130.636C100.567 131.009 100.146 131.177 99.6902 131.14C99.2347 131.108 98.7896 130.866 98.355 130.414L96.3737 128.355L97.4903 127.279L99.3984 129.263C99.5871 129.459 99.7733 129.557 99.957 129.559C100.141 129.56 100.309 129.488 100.461 129.341C100.617 129.191 100.697 129.025 100.7 128.843C100.704 128.661 100.611 128.472 100.422 128.276L98.5144 126.293Z" fill="#07503E"/>
<path d="M97.1839 131.878L98.4736 131.591C98.5441 131.977 98.5174 132.355 98.3936 132.725C98.2699 133.095 98.0483 133.433 97.729 133.741C97.2202 134.231 96.7088 134.467 96.1946 134.448C95.6825 134.432 95.1911 134.179 94.7205 133.69L92.8506 131.746L93.759 130.871L94.2353 131.234L94.2617 131.209C94.1507 130.683 94.3319 130.192 94.8054 129.736C95.1599 129.395 95.5341 129.219 95.9277 129.209C96.3192 129.201 96.6686 129.357 96.976 129.677C97.2729 129.985 97.4013 130.335 97.3615 130.726C97.3194 131.119 97.1035 131.503 96.7137 131.878L95.8581 132.703L95.9725 132.822C96.1082 132.963 96.2571 133.034 96.4193 133.034C96.5792 133.038 96.7373 132.964 96.8937 132.813C97.0236 132.688 97.1117 132.546 97.158 132.387C97.2021 132.23 97.2107 132.06 97.1839 131.878ZM95.3262 130.827C95.1302 131.015 95.0225 131.221 95.0032 131.444C94.9816 131.668 95.0556 131.869 95.2252 132.045L95.2475 132.068L95.9049 131.435C96.1537 131.195 96.1817 130.975 95.9888 130.774C95.7937 130.572 95.5729 130.589 95.3262 130.827Z" fill="#07503E"/>
<path d="M91.2094 133.333L92.3259 132.257L95.6046 135.665L94.6896 136.547L94.2484 136.214L94.2219 136.239C94.2586 136.471 94.2368 136.707 94.1566 136.945C94.0742 137.186 93.9163 137.419 93.6828 137.644C93.2798 138.032 92.8473 138.209 92.3853 138.174C91.9233 138.139 91.4739 137.895 91.0372 137.441L89.0687 135.395L90.1853 134.319L92.0902 136.299C92.2789 136.495 92.464 136.595 92.6455 136.599C92.8249 136.604 92.9938 136.531 93.1524 136.378C93.3109 136.225 93.3919 136.058 93.3954 135.876C93.3967 135.697 93.3029 135.509 93.1142 135.313L91.2094 133.333Z" fill="#07503E"/>
<path d="M86.4342 138.377L86.8459 138.806L86.8758 138.777C86.8607 138.557 86.8978 138.338 86.9869 138.12C87.076 137.903 87.2292 137.689 87.4464 137.481C87.7278 137.21 88.0443 137.03 88.396 136.939C88.7475 136.853 89.1069 136.865 89.474 136.977C89.841 137.093 90.1852 137.319 90.5065 137.654C90.83 137.991 91.0423 138.345 91.1434 138.717C91.2444 139.093 91.2425 139.457 91.1376 139.809C91.0348 140.163 90.8405 140.478 90.5547 140.753C90.076 141.213 89.5683 141.394 89.0314 141.296L89.0048 141.321L89.3308 141.801L88.4101 142.686L85.3075 139.453C84.9075 139.036 84.7155 138.592 84.7315 138.12C84.7454 137.651 84.9894 137.189 85.4636 136.733L86.2447 135.982C86.5859 135.655 86.9063 135.445 87.2058 135.353C87.501 135.261 87.8415 135.292 88.2274 135.445L87.741 136.769C87.5728 136.709 87.433 136.692 87.3216 136.718C87.2103 136.744 87.0892 136.82 86.9585 136.946L86.4533 137.431C86.296 137.582 86.2178 137.741 86.2188 137.906C86.2198 138.071 86.2916 138.228 86.4342 138.377ZM89.3703 138.72C89.1745 138.516 88.9442 138.409 88.6793 138.399C88.4166 138.392 88.1877 138.482 87.9927 138.669C87.7955 138.859 87.7019 139.081 87.712 139.335C87.7219 139.594 87.8312 139.832 88.0397 140.05C88.2504 140.269 88.4786 140.376 88.7242 140.37C88.9698 140.368 89.1945 140.27 89.3983 140.074C89.6044 139.876 89.7002 139.652 89.6857 139.401C89.6712 139.151 89.5661 138.924 89.3703 138.72Z" fill="#07503E"/>
<path d="M82.015 143.446C81.9398 143.079 81.9766 142.711 82.1253 142.343C82.2761 141.976 82.5166 141.634 82.8468 141.317C83.2124 140.966 83.6038 140.734 84.0211 140.623C84.4361 140.514 84.8467 140.52 85.2527 140.642C85.6587 140.763 86.0277 140.996 86.3597 141.342C86.6938 141.69 86.9153 142.07 87.0244 142.481C87.1333 142.896 87.1271 143.309 87.0058 143.72C86.8844 144.135 86.6432 144.516 86.282 144.863C85.8898 145.24 85.4712 145.469 85.0263 145.552C84.5835 145.636 84.1457 145.582 83.7129 145.388C83.28 145.194 82.8847 144.869 82.5267 144.412L84.9198 142.112C84.7143 141.96 84.5017 141.892 84.2819 141.907C84.0622 141.922 83.8581 142.02 83.6698 142.201C83.5191 142.346 83.4139 142.498 83.3542 142.658C83.2966 142.82 83.2748 142.983 83.2888 143.149L82.015 143.446ZM85.4425 143.988C85.622 143.816 85.7225 143.627 85.744 143.424C85.7633 143.222 85.7076 143.017 85.5771 142.81L84.2742 144.062C84.4602 144.212 84.6543 144.281 84.8566 144.27C85.0611 144.261 85.2563 144.167 85.4425 143.988Z" fill="#07503E"/>
<path d="M67.6469 140.666L66.1577 141.096L64.6442 135.846L66.1333 135.416L66.6531 137.219L71.57 135.8L72.0453 137.449L67.1284 138.868L67.6469 140.666Z" fill="#07503E"/>
<path d="M70.5042 132.097L70.9338 133.587L66.3914 134.898L65.9619 133.408L70.5042 132.097ZM65.8584 135.085L64.5367 135.467L64.0893 133.915L65.4111 133.533L65.8584 135.085Z" fill="#07503E"/>
<path d="M69.8049 129.849L70.2384 131.346L65.6749 132.669L65.3299 131.478L65.8247 131.248L65.8157 131.217C65.3362 131.074 65.0101 130.705 64.8374 130.108C64.7536 129.819 64.7349 129.544 64.7812 129.285C64.8237 129.023 64.9397 128.794 65.1293 128.598L65.1216 128.571C64.8724 128.506 64.6563 128.378 64.4732 128.188C64.2894 127.995 64.1521 127.742 64.0615 127.429C63.9033 126.883 63.9421 126.42 64.1779 126.041C64.4098 125.66 64.8105 125.387 65.38 125.222L68.2261 124.397L68.6596 125.894L65.9198 126.689C65.6896 126.755 65.5347 126.861 65.4551 127.006C65.3746 127.147 65.3617 127.313 65.4164 127.502C65.4703 127.688 65.5691 127.819 65.7128 127.896C65.8558 127.97 66.0423 127.973 66.2725 127.906L69.0123 127.112L69.4471 128.613L66.7072 129.408C66.4771 129.475 66.3222 129.58 66.2425 129.725C66.162 129.867 66.1491 130.032 66.2039 130.221C66.2577 130.407 66.3574 130.541 66.5029 130.624C66.6475 130.704 66.8349 130.71 67.0651 130.643L69.8049 129.849Z" fill="#07503E"/>
<path d="M65.9847 119.75C66.3442 119.854 66.6526 120.057 66.9099 120.36C67.1642 120.664 67.3551 121.036 67.4825 121.476C67.6235 121.963 67.6463 122.418 67.5508 122.839C67.4545 123.257 67.2584 123.618 66.9624 123.922C66.6664 124.225 66.2883 124.444 65.828 124.577C65.3647 124.711 64.9259 124.731 64.5116 124.637C64.0934 124.541 63.7308 124.343 63.4237 124.045C63.1129 123.745 62.8878 123.354 62.7484 122.873C62.5971 122.35 62.5883 121.873 62.7222 121.44C62.8531 121.008 63.1047 120.646 63.4771 120.352C63.8494 120.059 64.3211 119.859 64.8921 119.755L65.8155 122.944C66.0455 122.832 66.2049 122.675 66.2936 122.474C66.3823 122.272 66.3903 122.046 66.3177 121.795C66.2595 121.594 66.1737 121.43 66.0601 121.303C65.9436 121.177 65.8088 121.081 65.6558 121.017L65.9847 119.75ZM63.9125 122.535C63.9817 122.774 64.1016 122.951 64.2721 123.065C64.4417 123.175 64.6485 123.221 64.8923 123.202L64.3896 121.465C64.1709 121.561 64.0195 121.701 63.9354 121.885C63.8483 122.07 63.8407 122.287 63.9125 122.535Z" fill="#07503E"/>
<path d="M62.8978 117.817L61.508 118.22L61.3425 117.648L60.3997 117.922L59.6912 116.519L60.9129 116.165L60.6666 115.314L62.0565 114.911L62.3027 115.762L63.7722 115.336C63.9935 115.272 64.0743 115.136 64.0144 114.929L63.8579 114.389L65.2301 113.991L65.4712 114.824C65.614 115.317 65.5982 115.726 65.4239 116.052C65.2495 116.378 64.8953 116.618 64.3612 116.773L62.7324 117.245L62.8978 117.817Z" fill="#07503E"/>
<path d="M62.9019 114.242C62.4466 114.373 62.0112 114.386 61.5957 114.28C61.1801 114.174 60.8162 113.965 60.5038 113.654C60.1915 113.343 59.9658 112.947 59.8269 112.465C59.6879 111.983 59.6679 111.527 59.7667 111.097C59.8656 110.668 60.0626 110.297 60.3579 109.986C60.6531 109.675 61.0284 109.453 61.4837 109.322C61.936 109.192 62.3699 109.179 62.7855 109.285C63.201 109.391 63.5635 109.6 63.8729 109.912C64.1815 110.221 64.4057 110.618 64.5455 111.103C64.6844 111.585 64.7059 112.04 64.61 112.469C64.5141 112.898 64.3185 113.268 64.0233 113.579C63.728 113.89 63.3542 114.111 62.9019 114.242ZM61.9119 110.808C61.5947 110.899 61.364 111.065 61.2197 111.304C61.0717 111.54 61.0391 111.803 61.1222 112.091C61.2052 112.379 61.3714 112.586 61.6207 112.711C61.8692 112.834 62.1535 112.849 62.4736 112.756C62.7909 112.665 63.022 112.501 63.1671 112.265C63.3085 112.027 63.3376 111.764 63.2546 111.475C63.1707 111.185 63.006 110.977 62.7605 110.854C62.512 110.732 62.2291 110.716 61.9119 110.808Z" fill="#07503E"/>
<path d="M57.6454 102.735C58.0759 102.611 58.4898 102.614 58.887 102.744C59.2798 102.874 59.6379 103.107 59.9614 103.444C60.3061 103.803 60.5362 104.192 60.6516 104.609C60.7626 105.027 60.7597 105.441 60.6428 105.852C60.5237 106.26 60.2891 106.633 59.939 106.969C59.5889 107.305 59.2053 107.525 58.7882 107.627C58.3689 107.732 57.952 107.719 57.5374 107.589C57.1185 107.459 56.7346 107.212 56.3856 106.848C56.0685 106.518 55.8565 106.153 55.7494 105.753C55.6401 105.355 55.655 104.942 55.794 104.514L57.1749 104.888C57.0689 105.292 57.1436 105.627 57.399 105.894C57.6011 106.104 57.837 106.208 58.1065 106.205C58.3738 106.199 58.6261 106.083 58.8632 105.855C59.098 105.629 59.2236 105.383 59.2399 105.116C59.2539 104.851 59.1588 104.612 58.9545 104.399C58.6821 104.115 58.3495 104.017 57.9566 104.105L57.6454 102.735Z" fill="#07503E"/>
<path d="M57.0618 100.503L58.1366 101.621L53.3334 106.247L52.2585 105.13L53.9598 103.491L53.9344 103.465C53.5054 103.513 53.1011 103.34 52.7216 102.945C52.3485 102.558 52.1803 102.136 52.2171 101.68C52.2495 101.224 52.4915 100.779 52.943 100.344L55.001 98.3616L56.0759 99.4788L54.0938 101.388C53.8978 101.577 53.7992 101.763 53.7978 101.947C53.7965 102.131 53.869 102.299 54.0153 102.451C54.1658 102.607 54.3318 102.687 54.5134 102.691C54.6949 102.694 54.8837 102.601 55.0797 102.413L57.0618 100.503Z" fill="#07503E"/>
<path d="M51.4191 99.1963L51.7057 100.494C51.3175 100.564 50.9378 100.537 50.5666 100.412C50.1954 100.287 49.8556 100.064 49.547 99.7422C49.0555 99.23 48.8192 98.7154 48.8384 98.1984C48.8553 97.6834 49.1098 97.1896 49.6017 96.7169L51.5561 94.839L52.4339 95.7535L52.0689 96.2321L52.0945 96.2587C52.6225 96.1476 53.1153 96.3304 53.5728 96.8071C53.9154 97.1641 54.0914 97.5405 54.1008 97.9364C54.1081 98.3301 53.951 98.6813 53.6297 98.99C53.3195 99.2881 52.9682 99.4169 52.5757 99.3763C52.1811 99.3335 51.7955 99.1159 51.4189 98.7235L50.5921 97.8621L50.4725 97.9771C50.3307 98.1133 50.2592 98.263 50.2581 98.426C50.2548 98.5868 50.3287 98.746 50.4798 98.9034C50.6054 99.0342 50.7481 99.123 50.9079 99.1697C51.0656 99.2142 51.236 99.2231 51.4191 99.1963ZM52.477 97.3296C52.2876 97.1322 52.0812 97.0237 51.8578 97.0039C51.6322 96.982 51.4308 97.0562 51.2536 97.2265L51.2303 97.2489L51.8655 97.9107C52.106 98.1612 52.327 98.1896 52.5287 97.9959C52.7325 97.8 52.7153 97.5779 52.477 97.3296Z" fill="#07503E"/>
<path d="M50.0181 93.1796L51.093 94.2968L47.6871 97.5774L46.8062 96.6618L47.1389 96.2204L47.1135 96.1939C46.8814 96.2306 46.6462 96.2088 46.4077 96.1286C46.1672 96.0461 45.9345 95.8881 45.7098 95.6545C45.3218 95.2512 45.1452 94.8185 45.1799 94.3562C45.2147 93.8939 45.4589 93.4443 45.9125 93.0073L47.9574 91.0376L49.0323 92.1549L47.0535 94.0609C46.8575 94.2497 46.7578 94.4349 46.7543 94.6166C46.7487 94.796 46.8223 94.965 46.9749 95.1237C47.1276 95.2824 47.2946 95.3634 47.4762 95.3669C47.6556 95.3681 47.8433 95.2744 48.0393 95.0856L50.0181 93.1796Z" fill="#07503E"/>
<path d="M45.0184 88.3773L44.5922 88.7878L44.6208 88.8176C44.8395 88.8022 45.0572 88.8388 45.2738 88.9273C45.4905 89.0158 45.7027 89.168 45.9105 89.384C46.1797 89.6639 46.3597 89.9788 46.4503 90.3288C46.5366 90.6787 46.5244 91.0365 46.4137 91.4022C46.2986 91.7677 46.0748 92.1107 45.7423 92.431C45.4075 92.7534 45.0554 92.9652 44.686 93.0664C44.3122 93.1674 43.9501 93.1659 43.5997 93.0619C43.247 92.96 42.934 92.7669 42.6605 92.4827C42.2026 92.0067 42.0219 91.5014 42.1186 90.9667L42.0931 90.9403L41.6167 91.2654L40.7358 90.3498L43.9468 87.2569C44.3608 86.8581 44.8023 86.6664 45.2711 86.6818C45.7379 86.695 46.1981 86.9374 46.6518 87.409L47.3991 88.1858C47.7256 88.5251 47.9346 88.8439 48.0263 89.142C48.118 89.4358 48.0877 89.7748 47.9356 90.1591L46.6184 89.6765C46.6778 89.5089 46.6945 89.3697 46.6685 89.2589C46.6425 89.1481 46.5669 89.0277 46.4419 88.8977L45.9585 88.3952C45.808 88.2388 45.6505 88.1611 45.4862 88.1623C45.3219 88.1635 45.1659 88.2352 45.0184 88.3773ZM44.6806 91.301C44.8832 91.1059 44.9892 90.8764 44.9986 90.6127C45.0057 90.3511 44.916 90.1233 44.7294 89.9294C44.5407 89.7333 44.3198 89.6404 44.0667 89.6507C43.8092 89.6609 43.5725 89.77 43.3567 89.9779C43.1387 90.1879 43.0328 90.4152 43.0389 90.6597C43.0407 90.9042 43.1392 91.1278 43.3342 91.3306C43.5314 91.5355 43.7544 91.6306 44.0033 91.6159C44.2523 91.6011 44.478 91.4962 44.6806 91.301Z" fill="#07503E"/>
<path d="M39.9651 83.9739C40.3298 83.8987 40.6956 83.9348 41.0624 84.0824C41.4271 84.2322 41.7674 84.4712 42.0833 84.7995C42.4331 85.1631 42.6635 85.5526 42.7745 85.9679C42.8834 86.3809 42.8778 86.7897 42.7577 87.1941C42.6376 87.5985 42.4058 87.9662 42.0622 88.2971C41.7164 88.6302 41.3393 88.8512 40.9308 88.9602C40.5179 89.0692 40.1073 89.0635 39.6988 88.9433C39.286 88.8229 38.9068 88.5832 38.5612 88.224C38.1859 87.8339 37.9571 87.4175 37.8747 86.9746C37.7902 86.5338 37.8438 86.0979 38.0358 85.6667C38.2278 85.2356 38.5509 84.8415 39.0052 84.4846L41.2949 86.8645C41.4458 86.6597 41.5136 86.4479 41.4983 86.2291C41.483 86.0103 41.3853 85.8073 41.2051 85.62C41.0609 85.4701 40.9094 85.3656 40.7505 85.3063C40.5895 85.2492 40.4267 85.2277 40.2621 85.2418L39.9651 83.9739ZM39.43 87.3871C39.6017 87.5656 39.789 87.6654 39.9918 87.6866C40.1925 87.7056 40.3957 87.6499 40.6014 87.5197L39.3548 86.224C39.2065 86.4094 39.1379 86.6028 39.1492 86.8042C39.1583 87.0077 39.2519 87.202 39.43 87.3871Z" fill="#07503E"/>
</g>
<path d="M88.1424 100.872L93.2695 81.7256" stroke="#07503E" stroke-width="3.71025"/>
<path d="M85.6215 110.241L87.7808 102.175C89.5531 95.5549 85.6238 88.7491 79.0044 86.9739V86.9739L73.0117 85.3667" stroke="#07503E" stroke-width="3.71025"/>
<path d="M65.9901 83.3802L78.2033 80.1077L74.9322 92.3263L65.9901 83.3802Z" fill="#07503E"/>
<path d="M95.9033 71.8429L99.1775 84.0623L86.9635 80.7866L95.9033 71.8429Z" fill="#07503E"/>
<path d="M85.6183 110.238L87.7768 102.174C89.549 95.5529 96.352 91.6252 102.972 93.4008V93.4008L108.965 95.0083" stroke="#07503E" stroke-width="3.71025"/>
<path d="M116.018 96.8978L103.805 100.169L107.075 87.9514L116.018 96.8978Z" fill="#07503E"/>
<ellipse rx="2.12847" ry="2.12956" transform="matrix(0.965887 0.258962 -0.258676 0.965964 31.6808 75.2596)" fill="#07503E"/>
<ellipse rx="2.12847" ry="2.12956" transform="matrix(0.965887 0.258962 -0.258676 0.965964 149.278 106.788)" fill="#07503E"/>
<ellipse rx="2.12956" ry="2.12846" transform="matrix(-0.258676 0.965964 -0.965887 -0.258962 106.233 32.1919)" fill="#07503E"/>
<ellipse rx="2.12956" ry="2.12846" transform="matrix(-0.258676 0.965964 -0.965887 -0.258962 74.7253 149.856)" fill="#07503E"/>
<defs>
<clipPath id="clip0_4408_14717">
<rect width="115.478" height="115.983" fill="white" transform="matrix(0.965887 0.258962 -0.258676 0.965964 49.8828 20.314)"/>
</clipPath>
</defs>
</svg>
